<svg width="128" height="35" viewBox="0 0 128 35" fill="none" xmlns="http://www.w3.org/2000/svg">
  <g clip-path="url(#clip0_22_25)">
    <path
      d="M57.6 29.02H57.4C56.6 31.42 54.6 33.62 50.6 33.62C45.6 33.62 42.9 30.22 42.9 24.22V8.81999H48.8V23.52C48.8 26.82 50 28.62 52.9 28.62C55.3 28.62 57.6 27.42 57.6 24.82V8.81999H63.5V33.02H57.6V29.02Z"
      fill="#004852" />
    <path
      d="M68.4 33.02V8.82H74.3V12.82H74.5C75.4 10.32 77.4 8.22 81 8.22C84.3 8.22 86.8 9.82 88 13.12H88.1C89 10.42 91.7 8.22 95.5 8.22C100.2 8.22 102.9 11.62 102.9 17.62V32.92H97V18.32C97 14.82 95.8 13.12 93.1 13.12C90.8 13.12 88.6 14.42 88.6 17.02V33.02H82.7V18.32C82.7 14.82 81.5 13.12 78.8 13.12C76.5 13.12 74.3 14.42 74.3 17.02V33.02H68.4Z"
      fill="#004852" />
    <path
      d="M105.8 20.92C105.8 13.32 109.9 8.31999 117 8.31999C124.5 8.31999 128 13.92 128 20.52V22.42H111.9V23.02C111.9 26.52 113.9 28.82 117.8 28.82C120.7 28.82 122.5 27.42 124 25.52L127.2 29.12C125.2 31.82 121.7 33.52 117.2 33.52C110 33.62 105.8 28.62 105.8 20.92ZM111.9 18.42V18.82H121.8V18.42C121.8 15.12 120.1 12.82 117 12.82C114 12.72 111.9 15.02 111.9 18.42Z"
      fill="#004852" />
    <path d="M37.7 0.619995H31.8V27.12C31.8 30.82 33.7 32.92 37.7 32.92H40.9V28.22H37.7V0.619995Z" fill="#004852" />
    <path d="M9.8 0.619995H16.2L6.3 33.02H0L9.8 0.619995Z" fill="#3CD9BE" />
    <path d="M19.5 0.619995H13.1L23 33.02H29.3L19.5 0.619995Z" fill="#004852" />
    <path
      d="M57.6 29.02H57.4C56.6 31.42 54.6 33.62 50.6 33.62C45.6 33.62 42.9 30.22 42.9 24.22V8.81999H48.8V23.52C48.8 26.82 50 28.62 52.9 28.62C55.3 28.62 57.6 27.42 57.6 24.82V8.81999H63.5V33.02H57.6V29.02Z"
      fill="#004852" />
    <path
      d="M68.4 33.02V8.82H74.3V12.82H74.5C75.4 10.32 77.4 8.22 81 8.22C84.3 8.22 86.8 9.82 88 13.12H88.1C89 10.42 91.7 8.22 95.5 8.22C100.2 8.22 102.9 11.62 102.9 17.62V32.92H97V18.32C97 14.82 95.8 13.12 93.1 13.12C90.8 13.12 88.6 14.42 88.6 17.02V33.02H82.7V18.32C82.7 14.82 81.5 13.12 78.8 13.12C76.5 13.12 74.3 14.42 74.3 17.02V33.02H68.4Z"
      fill="#004852" />
    <path
      d="M105.8 20.92C105.8 13.32 109.9 8.31999 117 8.31999C124.5 8.31999 128 13.92 128 20.52V22.42H111.9V23.02C111.9 26.52 113.9 28.82 117.8 28.82C120.7 28.82 122.5 27.42 124 25.52L127.2 29.12C125.2 31.82 121.7 33.52 117.2 33.52C110 33.62 105.8 28.62 105.8 20.92ZM111.9 18.42V18.82H121.8V18.42C121.8 15.12 120.1 12.82 117 12.82C114 12.72 111.9 15.02 111.9 18.42Z"
      fill="#004852" />
    <path d="M37.7 0.619995H31.8V27.12C31.8 30.82 33.7 32.92 37.7 32.92H40.9V28.22H37.7V0.619995Z" fill="#004852" />
    <path d="M9.8 0.619995H16.2L6.3 33.02H0L9.8 0.619995Z" fill="#00DCC0" />
    <path d="M19.5 0.619995H13.1L23 33.02H29.3L19.5 0.619995Z" fill="#004852" />
  </g>
  <defs>
    <clipPath id="clip0_22_25">
      <rect width="128" height="34" fill="white" transform="translate(0 0.119995)" />
    </clipPath>
  </defs>
</svg>